<?xml version="1.0" encoding="UTF-8"?>
<svg xmlns="http://www.w3.org/2000/svg" version="1.1" viewBox="0 0 50 45">
  <defs>
    <style>
      .cls-1 {
        fill: #ef4237;
      }
    </style>
  </defs>
  <!-- Generator: Adobe Illustrator 28.7.7, SVG Export Plug-In . SVG Version: 1.2.0 Build 194)  -->
  <g>
    <g id="Layer_1">
      <g>
        <path class="cls-1" d="M17.04,20.94c-3.52,0-6.37-2.85-6.37-6.37s2.85-6.37,6.37-6.37c2.96,0,5.46,2.02,6.16,4.78h8.17v-.8c0-.37-.25-.68-.6-.76l-1.5-.38c-.27-.91-.62-1.78-1.08-2.61l.8-1.32c.19-.32.14-.72-.13-.97l-3.38-3.38c-.25-.27-.65-.32-.97-.13l-1.32.8c-.83-.46-1.7-.81-2.61-1.08l-.38-1.5c-.08-.35-.4-.6-.76-.6h-4.78c-.37,0-.68.25-.76.6l-.38,1.5c-.91.27-1.78.62-2.61,1.08l-1.32-.8c-.32-.19-.72-.14-.97.13l-3.38,3.38c-.27.25-.32.65-.13.97l.8,1.32c-.46.83-.81,1.7-1.08,2.61l-1.5.38c-.35.08-.6.4-.6.76v4.78c0,.37.25.68.6.76l1.5.38c.27.91.62,1.78,1.08,2.61l-.8,1.32c-.19.32-.14.72.13.97l3.38,3.38c.25.27.65.32.97.13l1.32-.8c.83.46,1.7.81,2.61,1.08l.38,1.5c.08.35.4.6.76.6h2.39v-2.39c0-.56.11-1.1.33-1.59-.22-.49-.33-1.03-.33-1.59v-2.39Z"/>
        <circle class="cls-1" cx="24.2" cy="39.25" r=".8"/>
        <circle class="cls-1" cx="24.2" cy="29.69" r=".8"/>
        <path class="cls-1" d="M18.79,25.71c-.09.25-.15.51-.15.8v6.37c0,.28.06.55.15.8h28.35c.09-.25.15-.51.15-.8v-6.37c0-.28-.06-.55-.15-.8h-28.35ZM24.2,32.08c-1.32,0-2.39-1.07-2.39-2.39s1.07-2.39,2.39-2.39,2.39,1.07,2.39,2.39-1.07,2.39-2.39,2.39ZM30.57,32.08c-1.32,0-2.39-1.07-2.39-2.39s1.07-2.39,2.39-2.39,2.39,1.07,2.39,2.39-1.07,2.39-2.39,2.39ZM43.31,32.08h-1.59c-.44,0-.8-.36-.8-.8s.36-.8.8-.8h1.59c.44,0,.8.36.8.8s-.36.8-.8.8ZM43.31,28.9h-1.59c-.44,0-.8-.36-.8-.8s.36-.8.8-.8h1.59c.44,0,.8.36.8.8s-.36.8-.8.8Z"/>
        <circle class="cls-1" cx="30.57" cy="20.14" r=".8"/>
        <circle class="cls-1" cx="24.2" cy="20.14" r=".8"/>
        <path class="cls-1" d="M44.9,14.57h-23.88c-1.32,0-2.39,1.07-2.39,2.39v6.37c0,.28.06.55.15.8h28.35c.09-.25.15-.51.15-.8v-6.37c0-1.32-1.07-2.39-2.39-2.39ZM24.2,22.53c-1.32,0-2.39-1.07-2.39-2.39s1.07-2.39,2.39-2.39,2.39,1.07,2.39,2.39-1.07,2.39-2.39,2.39ZM30.57,22.53c-1.32,0-2.39-1.07-2.39-2.39s1.07-2.39,2.39-2.39,2.39,1.07,2.39,2.39-1.07,2.39-2.39,2.39ZM43.31,22.53h-1.59c-.44,0-.8-.36-.8-.8s.36-.8.8-.8h1.59c.44,0,.8.36.8.8s-.36.8-.8.8ZM43.31,19.35h-1.59c-.44,0-.8-.36-.8-.8s.36-.8.8-.8h1.59c.44,0,.8.36.8.8s-.36.8-.8.8Z"/>
        <circle class="cls-1" cx="30.57" cy="29.69" r=".8"/>
        <circle class="cls-1" cx="30.57" cy="39.25" r=".8"/>
        <path class="cls-1" d="M18.79,35.27c-.09.25-.15.51-.15.8v6.37c0,1.32,1.07,2.39,2.39,2.39h23.88c1.32,0,2.39-1.07,2.39-2.39v-6.37c0-.28-.06-.55-.15-.8h-28.35ZM24.2,41.64c-1.32,0-2.39-1.07-2.39-2.39s1.07-2.39,2.39-2.39,2.39,1.07,2.39,2.39-1.07,2.39-2.39,2.39ZM30.57,41.64c-1.32,0-2.39-1.07-2.39-2.39s1.07-2.39,2.39-2.39,2.39,1.07,2.39,2.39-1.07,2.39-2.39,2.39ZM43.31,41.64h-1.59c-.44,0-.8-.36-.8-.8s.36-.8.8-.8h1.59c.44,0,.8.36.8.8s-.36.8-.8.8ZM43.31,38.45h-1.59c-.44,0-.8-.36-.8-.8s.36-.8.8-.8h1.59c.44,0,.8.36.8.8s-.36.8-.8.8Z"/>
      </g>
    </g>
  </g>
</svg>