<?xml version="1.0" encoding="UTF-8"?>
<svg xmlns="http://www.w3.org/2000/svg" version="1.1" viewBox="0 0 50 45">
  <defs>
    <style>
      .cls-1 {
        stroke: #ef4136;
      }

      .cls-1, .cls-2 {
        stroke-miterlimit: 10;
        stroke-width: 1.03px;
      }

      .cls-1, .cls-3 {
        fill: #fff;
      }

      .cls-2 {
        fill: #ef4136;
      }

      .cls-2, .cls-4 {
        stroke: #fff;
      }

      .cls-4 {
        fill: #232323;
        stroke-linecap: round;
        stroke-linejoin: round;
        stroke-width: 1.01px;
      }
    </style>
  </defs>
  <!-- Generator: Adobe Illustrator 28.7.7, SVG Export Plug-In . SVG Version: 1.2.0 Build 194)  -->
  <g>
    <g id="Layer_1">
      <g>
        <path class="cls-2" d="M34.64,13.88h2.52c1.66,0,3,1.34,3,3v21.03H4.54v-21.02c0-1.52,1.22-2.75,2.74-2.78l27.36-.23Z"/>
        <path class="cls-1" d="M34.77,11.83c-.03-.25.03-.5.15-.72l.33-.58c.13-.22.32-.39.55-.49l.93-.41c.39-.17.66-.53.7-.96.05-.48.05-.97,0-1.45-.04-.42-.32-.78-.7-.95l-.93-.41c-.23-.1-.43-.28-.55-.5l-.33-.58c-.12-.22-.18-.47-.15-.72l.11-1.01c.05-.42-.13-.83-.46-1.08-.2-.14-.4-.28-.62-.4-.22-.12-.44-.24-.66-.34-.38-.17-.83-.11-1.16.14l-.82.6c-.2.15-.45.23-.7.23h-.67c-.25,0-.5-.08-.71-.23l-.82-.6c-.34-.25-.79-.31-1.18-.13-.44.2-.86.44-1.26.72-.34.25-.52.67-.48,1.09l.11,1.01c.03.25-.03.5-.15.72l-.33.58c-.13.22-.32.39-.55.49l-.93.41c-.39.17-.66.53-.7.96-.05.48-.05.97,0,1.45.04.42.32.78.7.95l.93.41c.23.1.43.28.55.5l.33.58c.12.22.18.47.15.72l-.11,1.01c-.05.42.13.83.46,1.08.2.14.4.28.62.4.22.12.44.24.66.34.38.17.83.11,1.16-.14l.82-.6c.2-.15.45-.23.7-.23h.67c.25,0,.5.08.71.23l.82.6c.34.25.79.31,1.18.13.44-.2.86-.44,1.26-.72.34-.25.52-.67.48-1.09l-.11-1.01ZM28.77,10.28c-1.28-.74-1.72-2.38-.98-3.66.74-1.28,2.38-1.72,3.67-.98,1.28.74,1.72,2.38.98,3.66-.74,1.28-2.38,1.72-3.67.98Z"/>
        <g>
          <g>
            <path class="cls-2" d="M16.91,16.56h17.85c1.23,0,2.23,1,2.23,2.23v14.53c0,1.23-1,2.23-2.23,2.23H9.29c-1.23,0-2.23-1-2.23-2.23v-14.53c0-1.01.68-1.87,1.6-2.14"/>
            <path class="cls-2" d="M1.18,37.91h42.34v2.49c0,2.02-1.64,3.65-3.65,3.65H4.83c-2.02,0-3.65-1.64-3.65-3.65v-2.49h0Z"/>
          </g>
          <g>
            <g>
              <line class="cls-4" x1="34.03" y1="20.19" x2="20.88" y2="20.19"/>
              <line class="cls-4" x1="34.03" y1="23.07" x2="20.88" y2="23.07"/>
              <line class="cls-4" x1="34.03" y1="26.07" x2="20.88" y2="26.07"/>
              <line class="cls-4" x1="34.03" y1="29.18" x2="20.88" y2="29.18"/>
              <line class="cls-4" x1="34.03" y1="32.2" x2="20.88" y2="32.2"/>
            </g>
            <path class="cls-3" d="M19.29,20.19c0,.38-.31.69-.69.69s-.69-.31-.69-.69.31-.69.69-.69.69.31.69.69Z"/>
            <path class="cls-3" d="M19.29,23.07c0,.38-.31.69-.69.69s-.69-.31-.69-.69.31-.69.69-.69.69.31.69.69Z"/>
            <path class="cls-3" d="M19.29,26.07c0,.38-.31.69-.69.69s-.69-.31-.69-.69.31-.69.69-.69.69.31.69.69Z"/>
            <path class="cls-3" d="M19.36,29.18c0,.38-.31.69-.69.69s-.69-.31-.69-.69.31-.69.69-.69.69.31.69.69Z"/>
            <path class="cls-3" d="M19.36,32.2c0,.38-.31.69-.69.69s-.69-.31-.69-.69.31-.69.69-.69.69.31.69.69Z"/>
          </g>
        </g>
        <g>
          <path class="cls-2" d="M18.31,12.04c0-3.23-2.65-5.13-5.56-5.13s-5.56,1.86-5.56,5.13c0,1.9.59,2.79,1.4,4.47.71,1.48,1.72,4.46,1.72,4.46h4.87s1.03-2.98,1.72-4.46c.89-1.9,1.4-2.8,1.4-4.47Z"/>
          <rect class="cls-2" x="10.11" y="20.98" width="5.29" height="2.84" rx=".46" ry=".46"/>
          <path class="cls-2" d="M14.54,24.12c0,.91-.8,1.65-1.79,1.65s-1.79-.74-1.79-1.65h3.57Z"/>
        </g>
      </g>
    </g>
  </g>
</svg>