<?xml version="1.0" encoding="UTF-8"?>
<svg xmlns="http://www.w3.org/2000/svg" version="1.1" viewBox="0 0 50 45">
  <defs>
    <style>
      .cls-1 {
        fill: #fff;
      }
    </style>
  </defs>
  <!-- Generator: Adobe Illustrator 28.7.7, SVG Export Plug-In . SVG Version: 1.2.0 Build 194)  -->
  <g>
    <g id="Layer_1">
      <g>
        <path class="cls-1" d="M36.04,43.37H11.72c-.28,0-.51.23-.51.51s.23.51.51.51h24.32c.28,0,.51-.23.51-.51s-.23-.51-.51-.51Z"/>
        <path class="cls-1" d="M37.5,25.08c-.35-1.32-.93-2.89-1.88-4.29,0,0-.61-.85-2.08-1.41,0,0-3.12-.95-4.6-1.98,0,.03,0,.06,0,.09,0,.41-.05.91-.12,1.42-.19,1.53-.53,3.24-.53,3.24-.46-.75-.87-1.25-1.23-1.57-.45-.39-.82-.51-1.11-.51-.04,0-.07,0-.1,0-.36.04-.58.26-.65.34,2-2.44,2.71-4.52,2.77-4.71-.01-.15-.01-.32,0-.49,0,0-.01-.19-.03-.19,0,0,0,0,0,0,.57-.73,1.04-1.35,1.35-2.2.53-.53.8-1.81.8-1.81.44-1.23.17-1.71-.04-1.88.32-1.03,1.01-3.93-.64-5.78,0,0-.63-1.39-3.16-1.9,0,0-.97-.39-1.36-1.42,0,0-.87.11-.87.87l-.42-.17-.39.28-.45-.28s-.03,0-.1,0c-.09,0-.23.02-.45.09,0,0-3.29,1.27-4.14,3.88,0,0-.47,1.11.1,4.34-.14.06-.75.39-.18,1.97,0,0,.25,1.16.72,1.73.27.83.68,1.63,1.18,2.34,0,0,0,0,0,0,0,0,.06.31,0,.75.12.32,1.06,2.79,2.72,4.65-.09-.09-.27-.24-.54-.28-.05,0-.11-.02-.17-.02-.27,0-.6.1-1,.43-.39.31-.84.83-1.34,1.66,0,0-.41-2.04-.58-3.66-.04-.39-.07-.76-.07-1.06,0-.06,0-.12,0-.18-1.45,1.05-4.67,2.03-4.67,2.03-1.46.56-2.08,1.41-2.08,1.41-.94,1.4-1.52,2.96-1.88,4.28-1.26.11-2.26,1.16-2.26,2.45v.12s2.24,12.91,2.24,12.91c.03,1.33,1.13,2.4,2.46,2.4h22.35c1.34,0,2.43-1.07,2.46-2.4l2.23-12.91v-.06s0-.06,0-.06c0-1.29-1-2.35-2.26-2.45ZM36.85,40.5c0,.99-.8,1.79-1.79,1.79H12.71c-.99,0-1.79-.8-1.79-1.79l-2.24-12.96c0-.99.8-1.79,1.79-1.79h26.82c.99,0,1.79.8,1.79,1.79l-2.24,12.96Z"/>
        <path class="cls-1" d="M23.88,32.73c-.59,0-1.06.47-1.06,1.06s.48,1.06,1.06,1.06,1.06-.47,1.06-1.06-.47-1.06-1.06-1.06Z"/>
      </g>
    </g>
  </g>
</svg>