<?xml version="1.0" encoding="UTF-8"?>
<svg xmlns="http://www.w3.org/2000/svg" version="1.1" viewBox="0 0 50 45">
  <defs>
    <style>
      .cls-1 {
        fill: #fff;
      }
    </style>
  </defs>
  <!-- Generator: Adobe Illustrator 28.7.7, SVG Export Plug-In . SVG Version: 1.2.0 Build 194)  -->
  <g>
    <g id="Layer_1">
      <g>
        <path class="cls-1" d="M42.94,4.16H5.52C2.98,4.16.9,6.26.9,8.83v21.6c0,2.56,2.08,4.66,4.62,4.66h37.42c2.54,0,4.62-2.1,4.62-4.66V8.83c0-2.56-2.08-4.66-4.62-4.66ZM26.27,33.78h-4.07c-.33,0-.59-.27-.59-.6s.26-.6.59-.6h4.07c.33,0,.59.27.59.6s-.26.6-.59.6ZM44.41,29.47c0,.88-.72,1.59-1.6,1.59H5.65c-.88,0-1.6-.71-1.6-1.59V8.5c0-.88.72-1.59,1.6-1.59h37.16c.88,0,1.6.71,1.6,1.59v20.98Z"/>
        <rect class="cls-1" x="17.47" y="35.75" width="13.52" height="3.23"/>
        <path class="cls-1" d="M32.74,39.64H15.72c-1.79,0-3.26,1.48-3.26,3.29h23.57c0-1.81-1.49-3.29-3.28-3.29Z"/>
        <path class="cls-1" d="M24.21,17.16l-1.16-.11c-.11-.4-.26-.82-.44-1.19l-1.86,2.32c.04.27.07.53.07.82,0,2.7-2.17,4.89-4.84,4.89s-4.86-2.19-4.86-4.89,2.17-4.91,4.86-4.91c1.16,0,2.23.42,3.06,1.13l2.49-3.09-.24-.24c-.22-.22-.57-.27-.79-.07l-.88.75c-.55-.31-1.14-.55-1.75-.73l-.11-1.17c-.02-.29-.28-.51-.61-.51h-2.39c-.33,0-.59.22-.61.51l-.11,1.17c-.61.18-1.2.42-1.75.73l-.88-.75c-.22-.2-.57-.15-.79.07-.28.29-.57.57-.85.86-.28.29-.57.57-.85.86-.22.22-.26.57-.07.8l.74.88c-.31.55-.55,1.15-.72,1.77l-1.16.11c-.28.02-.5.29-.5.62v2.41c0,.33.22.6.5.62l1.16.11c.17.62.42,1.22.72,1.77l-.74.88c-.2.22-.15.57.07.8.28.29.57.57.85.86.28.29.57.57.85.86.22.22.57.27.79.09l.88-.77c.55.31,1.14.57,1.75.73l.11,1.17c.02.29.28.51.61.51h2.39c.33,0,.59-.22.61-.51l.11-1.17c.61-.15,1.2-.42,1.75-.73l.88.77c.22.18.57.13.79-.09.28-.29.57-.57.85-.86.28-.29.57-.57.85-.86.22-.22.26-.57.07-.8l-.74-.88c.31-.55.55-1.15.72-1.77l1.16-.11c.28-.02.5-.29.5-.62v-2.41c0-.33-.22-.6-.5-.62Z"/>
        <path class="cls-1" d="M24.54,9.47l-7.99,9.9-1.86-2.45c-.31-.4-.88-.49-1.29-.18-.42.31-.48.91-.18,1.3l2.58,3.4c.31.4.9.49,1.29.18.07-.07.13-.13.2-.2l8.67-10.79c.33-.4.26-.99-.13-1.33-.39-.31-.96-.27-1.29.15Z"/>
        <path class="cls-1" d="M40.97,10.44h-12.32c-.28,0-.53.22-.53.53,0,.29.24.53.53.53h12.32c.31,0,.55-.24.55-.53,0-.31-.24-.53-.55-.53Z"/>
        <path class="cls-1" d="M40.97,16.85h-12.32c-.28,0-.53.24-.53.53s.24.53.53.53h12.32c.31,0,.55-.24.55-.53s-.24-.53-.55-.53Z"/>
        <path class="cls-1" d="M40.97,13.65h-12.32c-.28,0-.53.24-.53.53s.24.53.53.53h12.32c.31,0,.55-.24.55-.53s-.24-.53-.55-.53Z"/>
        <path class="cls-1" d="M40.97,23.26h-12.32c-.28,0-.53.24-.53.53,0,.31.24.53.53.53h12.32c.31,0,.55-.22.55-.53,0-.29-.24-.53-.55-.53Z"/>
        <path class="cls-1" d="M40.97,20.06h-12.32c-.28,0-.53.24-.53.53s.24.53.53.53h12.32c.31,0,.55-.24.55-.53s-.24-.53-.55-.53Z"/>
        <path class="cls-1" d="M40.97,26.47h-12.32c-.28,0-.53.24-.53.53,0,.31.24.55.53.55h12.32c.31,0,.55-.24.55-.55,0-.29-.24-.53-.55-.53Z"/>
      </g>
    </g>
  </g>
</svg>