<?xml version="1.0" encoding="UTF-8"?>
<svg xmlns="http://www.w3.org/2000/svg" version="1.1" viewBox="0 0 60 65.06">
  <defs>
    <style>
      .cls-1 {
        fill: #ef4136;
      }
    </style>
  </defs>
  <!-- Generator: Adobe Illustrator 28.7.7, SVG Export Plug-In . SVG Version: 1.2.0 Build 194)  -->
  <g>
    <g id="Layer_1">
      <g id="Layer_1-2" data-name="Layer_1">
        <g id="Layer_1-2">
          <g>
            <path class="cls-1" d="M47.6,41.46s-.95-1.84-1.9-5.12l1.85-.9-.32-.7s-.99-2.2-1.96-5.31h1.06c-.4-3.26-1.33-8.21-3.25-10.88v-1.74c-4.16-1.01-12.11-1.61-14.32,1.56-1.95.27-2.82.56-3.25,1.87l-4.6,1.18.11.71c.37,2.49.75,3.06,2.05,4.67,4.84-.59,5.43-.87,5.45-.18.02.33-.25.69-.91.77l-3.43.38-.2.29c-.51.72-.56,1.69-.11,2.53.39.77,1.13,1.3,2.04,1.52h0c-.84,3.52-.81,3.38-1.25,5.22l2.92.86.16.05v.03l-.04,4c6.15-.84,4.85-.67,6.59-.88l.25-4.18,3.37-.51.58,4.83,4.91,1.47c.48,4.26.43,8.73-.04,12.48-.47,3.72-4.65,5.93-8.41,5.93h-.23c-2.7-.06-5.08-1.18-6.52-3.05-1.75-2.28-2.18-5.63-1.24-9.73.34-.25.74-.42,1.18-.42,1.47,0,2.34,1.54,1.56,2.72-.29.43-.83,1.87.05,3.07,1.26,1.71,4.58,1.76,5.76-.25.35-.05.69-.17.99-.35.52-.34.87-.86.96-1.47.06-.42,0-.85-.18-1.24,1.43-1.01,1.08-3.2-.66-4.09.13-1.11-.71-2.16-1.96-2.57.04-.37-.02-.7-.17-1.04l-1.84.22c.33.23.59.59.29.87-.53.49-.17,1.4.58,1.38,1.1-.06,1.71.79,1.43,1.13-.38.47-.11,1.18.49,1.28,1.11.18,1.61,1.55.52,1.66-.68.07-.96.91-.46,1.38.66.61.39,1.38-.46,1.29-.35-.03-.7.19-.82.54-.42,1.24-2.57,1.23-3.21.34-.24-.33-.23-.76.02-1.29.34-.53.52-1.15.52-1.78,0-1.85-1.54-3.36-3.44-3.36-.34,0-.67.05-.97.14.13-4.42-1.89-7.74-5.16-10.78.35-.27.83-.4,1.44-.34l.38-1.56c-1.6-.24-2.99.47-3.62,1.58l-.32.56c3.82,3.37,6.24,6.49,5.59,11.78-1.42,5.93.02,9.44,1.48,11.32,1.74,2.25,4.55,3.59,7.74,3.67h.27c4.4,0,9.39-2.57,9.99-7.33.47-3.63.56-8.03.1-12.37l2.97-1.01-.43-.82h0l.02-.02ZM44.73,41.71c-1.94-.57-.71-.2-4.78-1.42l-.65-5.41-6.26.94-.25,4.14-3.48.52.03-3.32-2.82-.8c.19-.79-.16.67,1-4.17,1.73-.08,3.49-.39,4.82-1.75,1.85-1.87,2.64-5.36,2.56-11.35l-1.59.02c.14,10.97-2.73,11.44-6.56,11.5-1.24-.05-1.68-.84-1.59-1.38l2.62-.29c3.31-.38,2.91-4.69-.11-4.33l-3.92.47c-.62-.81-.85-1.34-1.06-2.51l4.2-1.08c.04-.33.07-.97.34-1.16.38-.25,2.06-.44,2.52-.49l.2-.38c1.23-2.42,8.31-2.04,11.54-1.39v1.02c1.71,2.19,2.57,5.98,3.02,8.75h-1.37c.35,1.2,1.09,3.82,2.33,6.84l-1.67.81c.24.88.91,3.41,1.99,5.87-.23.08-.86.29-1.06.35h.02l-.02.02Z"/>
            <rect class="cls-1" x="28.74" y="21.24" width="2.13" height="1.59"/>
            <path class="cls-1" d="M21.55,28.73c.43,0,.79-.35.79-.79s-.35-.79-.79-.79c-8,0-16.39,2.92-17.9,10.43-.2,1.03,1.35,1.34,1.56.32.71-3.54,3.32-6.2,7.36-7.7-2.02,2.01-3.45,4.76-4.13,7.35-.27,1.02,1.28,1.42,1.54.4,1.03-3.92,3.88-8.23,7.97-8.99,1.15-.13,2.35-.2,3.62-.2l-.02-.02h0Z"/>
          </g>
        </g>
      </g>
    </g>
  </g>
</svg>