<?xml version="1.0" encoding="UTF-8"?>
<svg xmlns="http://www.w3.org/2000/svg" version="1.1" viewBox="0 0 50 45">
  <defs>
    <style>
      .cls-1 {
        fill: #ef4237;
      }
    </style>
  </defs>
  <!-- Generator: Adobe Illustrator 28.7.7, SVG Export Plug-In . SVG Version: 1.2.0 Build 194)  -->
  <g>
    <g id="Layer_1">
      <g>
        <path class="cls-1" d="M32.55,2.6h-3.03c-.54-1.24-1.76-2.06-3.14-2.06s-2.6.82-3.14,2.06h-3.03c-.76,0-1.37.61-1.37,1.37v2.74c0,.75.61,1.37,1.37,1.37h12.35c.76,0,1.37-.62,1.37-1.37v-2.74c0-.76-.61-1.37-1.37-1.37ZM32.55,6.72h-12.35v-2.74h3.52c.31,0,.59-.21.67-.51.23-.91,1.05-1.54,1.99-1.54s1.76.63,1.99,1.54c.08.3.35.51.67.51h3.52v2.74Z"/>
        <path class="cls-1" d="M41.75,34.52h-.01s.01-.01.01-.01c.33-.33.52-.78.52-1.25,0-.48-.19-.93-.52-1.26l-.85-.85c-.34-.34-.79-.52-1.26-.52s-.92.19-1.26.52h0s0,0,0,0c0-.98-.8-1.78-1.78-1.78h-1.21c-.98,0-1.78.8-1.78,1.78h0s-.01,0-.01,0c-.34-.34-.78-.52-1.26-.52s-.92.19-1.26.52l-.86.86c-.69.69-.69,1.82,0,2.51h0s-.01.01-.01.01c-.98,0-1.78.8-1.78,1.78v1.21c0,.98.8,1.78,1.78,1.78h.01-.01c-.69.7-.69,1.83,0,2.52l.86.86c.34.34.79.52,1.26.52s.92-.18,1.26-.52h.01s0,0,0,0c0,.98.8,1.78,1.78,1.78h1.21c.98,0,1.78-.8,1.78-1.78h0s.01,0,.01,0c.33.34.78.52,1.26.52s.92-.18,1.26-.51l.86-.86c.33-.33.52-.78.52-1.26,0-.48-.19-.92-.52-1.26h0s.01,0,.01,0c.98,0,1.78-.8,1.78-1.78v-1.21c0-.98-.8-1.78-1.78-1.78ZM42.15,37.52c0,.22-.18.4-.4.4h-.61c-.23,0-.45.18-.51.4-.09.31-.22.6-.36.88-.11.2-.08.49.08.65l.43.43c.16.16.16.42,0,.57l-.86.86c-.15.15-.42.16-.58,0l-.43-.43c-.16-.16-.44-.19-.64-.08-.28.15-.57.27-.88.37-.22.07-.4.28-.4.51v.6c0,.22-.18.4-.4.4h-1.21c-.22,0-.4-.18-.4-.4v-.6c0-.23-.18-.45-.4-.51-.31-.1-.6-.22-.88-.37-.2-.11-.48-.08-.64.08l-.43.43c-.16.16-.42.15-.57,0l-.86-.86c-.16-.15-.16-.41,0-.57l.43-.43c.16-.16.19-.45.08-.65-.15-.27-.27-.57-.37-.88-.07-.22-.28-.4-.51-.4h-.6c-.22,0-.4-.18-.4-.4v-1.21c0-.22.18-.4.4-.4h.6c.23,0,.45-.18.51-.4.09-.31.22-.6.37-.88.11-.2.08-.49-.08-.65l-.43-.43c-.16-.16-.16-.42,0-.57l.86-.86c.16-.15.42-.15.57,0l.43.43c.16.16.44.19.64.08.28-.15.57-.27.88-.37.22-.07.4-.28.4-.51v-.6c0-.22.18-.4.4-.4h1.21c.22,0,.4.18.4.4v.6c0,.23.18.45.4.51.31.1.6.22.88.37.2.11.48.08.64-.08l.43-.43c.15-.15.42-.16.58,0l.86.86c.16.16.16.42,0,.57l-.43.43c-.16.16-.19.45-.08.65.15.27.27.57.36.88.07.22.29.4.51.4h.61c.22,0,.4.18.4.4v1.21Z"/>
        <path class="cls-1" d="M35.98,33.82c-1.7,0-3.09,1.39-3.09,3.09s1.39,3.09,3.09,3.09,3.09-1.39,3.09-3.09-1.39-3.09-3.09-3.09Z"/>
        <path class="cls-1" d="M12.99,10.84c-3.6,0-6.52,2.92-6.52,6.52,0,1.8.85,3.03,1.67,4.22.42.61.82,1.19,1.12,1.86.43.96.69,2,.77,3.09.07.82.74,1.46,1.55,1.46h2.81c.81,0,1.49-.64,1.55-1.46.07-.89.25-1.75.55-2.55.3-.82.78-1.51,1.29-2.25.85-1.23,1.73-2.51,1.73-4.37,0-3.6-2.92-6.52-6.52-6.52ZM16.65,20.95c-.53.77-1.08,1.57-1.44,2.55-.34.92-.55,1.91-.63,2.92-.01.11-.09.2-.18.2h-.72v-6.94c.14.06.31.1.51.1.61,0,.94-.37,1.12-.58.03-.04.08-.09.1-.11.37,0,.67-.31.67-.69s-.31-.69-.69-.69c-.61,0-.94.38-1.12.58-.02.03-.06.07-.08.09-.03-.03-.06-.07-.09-.09-.18-.2-.5-.58-1.12-.58s-.94.38-1.12.58c-.03.03-.06.07-.08.09-.03-.03-.06-.07-.09-.09-.17-.2-.5-.58-1.12-.58-.38,0-.68.31-.68.69s.3.68.67.69c.03.02.07.07.1.11.18.2.5.58,1.12.58.2,0,.37-.04.51-.11h0v6.95h-.72c-.09,0-.17-.09-.18-.2-.1-1.26-.39-2.45-.89-3.55-.35-.78-.81-1.44-1.25-2.08-.77-1.11-1.43-2.07-1.43-3.44,0-2.84,2.31-5.15,5.15-5.15s5.15,2.31,5.15,5.15c0,1.44-.69,2.44-1.49,3.59Z"/>
        <path class="cls-1" d="M15.05,29.36c0-.38-.31-.69-.69-.69h-2.74c-.38,0-.69.31-.69.69s.31.69.69.69h2.74c.38,0,.69-.31.69-.69Z"/>
        <circle class="cls-1" cx="26.37" cy="5" r=".69"/>
        <path class="cls-1" d="M38.44,4.66h-3.15v2.06c0,1.51-1.23,2.74-2.74,2.74h-12.35c-1.51,0-2.74-1.23-2.74-2.74v-2.06h-3.15c-1.1,0-2,.92-2,2.06v2.78c.23-.02.46-.03.69-.03,4.35,0,7.89,3.54,7.89,7.89,0,2.29-1.09,3.88-1.97,5.15-.48.69-.89,1.29-1.13,1.95-.25.68-.41,1.42-.47,2.18-.06.81-.45,1.52-1.02,2.02.08.22.13.46.13.72,0,1.14-.92,2.06-2.06,2.06h-2.06v10.98c0,1.14.9,2.06,2,2.06h17.2c-.52-.14-1-.42-1.4-.81l-.86-.86c-.74-.74-1.03-1.76-.88-2.72-.79-.57-1.3-1.5-1.3-2.55v-1.21c0-1.05.51-1.98,1.3-2.55-.15-.96.14-1.98.88-2.72l.86-.86c.6-.6,1.39-.92,2.23-.92.17,0,.33.01.49.04.57-.79,1.5-1.3,2.55-1.3h1.21c1.04,0,1.97.51,2.55,1.3.16-.03.33-.04.5-.04.27,0,.55.03.81.11V6.72c0-1.14-.9-2.06-2-2.06ZM26.46,20.28l-1.76,1.37c-.12.1-.27.14-.42.14s-.29-.04-.41-.13l-.98-.72c-.31-.23-.37-.66-.14-.96.23-.31.66-.37.96-.14l.56.42,1.35-1.05c.3-.23.73-.18.96.12.23.3.18.73-.12.96ZM26.45,16.87s-1.76,1.37-1.76,1.37c-.12.1-.27.14-.42.14s-.29-.04-.41-.13l-.98-.73c-.31-.22-.37-.66-.14-.96.23-.31.66-.37.96-.14l.56.42,1.35-1.05c.3-.23.73-.18.96.12.23.3.18.73-.12.96ZM22.72,13.15c.22-.31.66-.37.96-.14l.57.42,1.35-1.05c.3-.23.73-.18.96.12.23.3.18.73-.12.96l-1.76,1.37c-.12.1-.27.14-.42.14s-.29-.04-.41-.13l-.98-.72c-.31-.23-.37-.66-.14-.96ZM25,38.62h-8.23c-.38,0-.69-.31-.69-.69s.31-.69.69-.69h.69v-2.06c0-.38.31-.69.69-.69s.69.31.69.69v2.06h1.37v-3.43c0-.38.31-.69.69-.69s.69.31.69.69v3.43h1.37v-5.15c0-.38.31-.69.69-.69s.69.31.69.69v5.15h.69c.38,0,.69.31.69.69s-.31.69-.69.69ZM26.48,23.7s-1.76,1.37-1.76,1.37c-.12.1-.27.14-.42.14s-.29-.04-.41-.13l-.98-.73c-.31-.22-.37-.66-.14-.96.23-.31.66-.37.96-.14l.56.42,1.35-1.05c.3-.23.73-.18.96.12.23.3.18.73-.12.96ZM37.01,24.22h-8.23c-.38,0-.69-.31-.69-.69s.31-.69.69-.69h8.23c.38,0,.69.31.69.69s-.31.69-.69.69ZM37.01,20.78h-8.23c-.38,0-.69-.31-.69-.69s.31-.69.69-.69h8.23c.38,0,.69.31.69.69s-.31.69-.69.69ZM37.01,17.35h-8.23c-.38,0-.69-.31-.69-.69s.31-.69.69-.69h8.23c.38,0,.69.31.69.69s-.31.69-.69.69ZM37.01,13.92h-8.23c-.38,0-.69-.31-.69-.69s.31-.69.69-.69h8.23c.38,0,.69.31.69.69s-.31.69-.69.69Z"/>
      </g>
    </g>
  </g>
</svg>