<?xml version="1.0" encoding="UTF-8"?>
<svg xmlns="http://www.w3.org/2000/svg" version="1.1" viewBox="0 0 60 65.06">
  <defs>
    <style>
      .cls-1 {
        fill: #ef4136;
      }
    </style>
  </defs>
  <!-- Generator: Adobe Illustrator 28.7.7, SVG Export Plug-In . SVG Version: 1.2.0 Build 194)  -->
  <g>
    <g id="Layer_1">
      <g>
        <path class="cls-1" d="M16.95,4.8c-.73,2.78,2.41,5.5,5.95,2.99,1.76-1.2,1.25-1.37,2.95-1.41-1.39-.58-1.53-.35-3.47.47-.68.28-1.45.48-2.19.37-.68-.1-1.26-.46-1.43-1.12-.25-.93.5-2.61,2.79-2.48,2.4.16,4.56,1.02,7.04-.26-2.69.15-4.58-.89-6.39-1.3-2.72-.62-4.72.74-5.25,2.74Z"/>
        <path class="cls-1" d="M41.75,34.55l-1.02,1.57,3.56,2.31-4.29,8.03-.02-.2.6-8.92-3.57-6.12c.51-.49.88-1.05,1.14-1.64l3.48-.19-3.1-1.12c.1-.65.08-1.31-.05-1.93l4.02-2.66-4.6,1.15c-.24-.42-.54-.78-.87-1.09l1.89-5.29-3.29,4.41c-.4-.15-.82-.25-1.26-.28l-1.81-5.01.17,5.13c-.12.03-.24.06-.37.09-.16.05-.31.1-.46.17l-4.35-2.82,2.86,3.87c-.24.26-.46.55-.63.88l-3.69-.08-3.37-11.47h-1.92v-2.11h2.03v-1.4h-5.93v1.4h2.03v2.11h-1.37v4.42l1.63,1.63,1.54,7.67-.78,3.77,3.14,7.86-1.06,6.39.99,1.75-1.48,7.02,1.09,1.67-1.22,7.79c-3.28,0,.55,0-2.7,0v1.87h25.66v-1.87c-4.43,0,1.76,0-3.1,0l-1.02-13.52.07.04,2.61-4.88.72.43,1.32-2.98-.4-.52,2.18-4.08-5-3.24ZM23.29,63.3l1.17-7.48,6.11-4.52-1.11-1.5-5.62,4.16-.32-.49,1.32-6.25,4.94-3.53-1.09-1.52-4.39,3.13-.33-.58.92-5.57,2.48-1.51-.98-1.6-1.89,1.16-2.62-6.55.74-3.59-1.72-8.59-1.48-1.48v-1.77h1.89l3.79,12.91,3.95,5.45,1.52-1.1-3.76-5.19-.62-2.11,3.06,1.31c-.09.69-.04,1.39.18,2.06l1.78-.58c-.23-.7-.16-1.47.18-2.11.32-.61.85-1.05,1.49-1.24,1.56-.46,2.87.07,3.52,1.4.61,1.28.42,3.14-1.14,4.24l-.7.49,4.11,7.05-.57,8.48,1.29,17.04h-16.1Z"/>
      </g>
    </g>
  </g>
</svg>