<?xml version="1.0" encoding="UTF-8"?>
<svg xmlns="http://www.w3.org/2000/svg" version="1.1" viewBox="0 0 50 45">
  <defs>
    <style>
      .cls-1 {
        fill: #fff;
      }
    </style>
  </defs>
  <!-- Generator: Adobe Illustrator 28.7.7, SVG Export Plug-In . SVG Version: 1.2.0 Build 194)  -->
  <g>
    <g id="Layer_1">
      <path class="cls-1" d="M17.81,10.75h11.45c.4,0,.72-.32.72-.72s-.32-.72-.72-.72h-11.45c-.4,0-.72.32-.72.72s.32.72.72.72Z"/>
      <path class="cls-1" d="M17.81,13.62h7.87c.4,0,.72-.32.72-.72s-.32-.72-.72-.72h-7.87c-.4,0-.72.32-.72.72s.32.72.72.72Z"/>
      <path class="cls-1" d="M17.81,17.91h11.45c.4,0,.72-.32.72-.72s-.32-.72-.72-.72h-11.45c-.4,0-.72.32-.72.72s.32.72.72.72Z"/>
      <path class="cls-1" d="M9.17,19.87c-.23.08-.47.18-.69.29-.25-.12-.52-.18-.8-.18-.5,0-.97.19-1.32.55l-.61.61c-.57.57-.69,1.43-.37,2.12-.11.22-.2.46-.29.69-.72.26-1.24.95-1.24,1.76v.87c0,.81.52,1.5,1.24,1.76.08.24.18.47.29.69-.33.69-.21,1.55.37,2.12l.61.61c.35.35.82.55,1.32.55.28,0,.56-.06.8-.18.22.11.45.2.69.29.26.72.95,1.24,1.76,1.24h.87c.81,0,1.5-.52,1.76-1.24.23-.08.47-.18.69-.29.25.12.52.18.8.18.5,0,.97-.19,1.32-.55l.61-.61c.57-.57.69-1.43.37-2.12.11-.22.2-.46.29-.69.72-.26,1.24-.95,1.24-1.76v-.87c0-.81-.52-1.5-1.24-1.76-.08-.24-.18-.47-.29-.69.33-.69.21-1.55-.37-2.12l-.61-.61c-.35-.35-.82-.55-1.32-.55-.28,0-.56.06-.8.18-.22-.11-.45-.2-.69-.29-.26-.72-.95-1.24-1.76-1.24h-.87c-.81,0-1.5.52-1.76,1.24ZM10.49,20.5c0-.24.19-.43.43-.43h.87c.24,0,.43.19.43.43v.51c.79.13,1.52.44,2.15.89l.36-.36c.08-.08.2-.13.31-.13s.22.04.31.13l.61.61c.17.17.17.44,0,.61l-.36.36c.45.63.76,1.36.89,2.15h.51c.24,0,.43.19.43.43v.87c0,.24-.19.43-.43.43h-.51c-.13.79-.44,1.52-.89,2.15l.36.36c.17.17.17.44,0,.61l-.61.61c-.08.08-.2.13-.31.13s-.22-.04-.31-.13l-.36-.36c-.63.45-1.36.76-2.15.89v.51c0,.24-.19.43-.43.43h-.87c-.24,0-.43-.19-.43-.43v-.51c-.79-.13-1.52-.44-2.15-.89l-.36.36c-.08.08-.2.13-.31.13s-.22-.04-.31-.13l-.61-.61c-.17-.17-.17-.44,0-.61l.36-.36c-.45-.63-.76-1.36-.89-2.15h-.51c-.24,0-.43-.19-.43-.43v-.87c0-.24.19-.43.43-.43h.51c.13-.79.44-1.52.89-2.15l-.36-.36c-.17-.17-.17-.44,0-.61l.61-.61c.08-.08.2-.13.31-.13s.22.04.31.13l.36.36c.63-.45,1.36-.76,2.15-.89v-.51Z"/>
      <circle class="cls-1" cx="11.36" cy="26.15" r="3.22"/>
      <path class="cls-1" d="M18,20.13c.2.2.36.42.5.65h7.18c.4,0,.72-.32.72-.72s-.32-.72-.72-.72h-7.87c-.17,0-.32.06-.44.15,0,0,0,0,.01.01l.62.62Z"/>
      <path class="cls-1" d="M29.26,25.07c.4,0,.72-.32.72-.72s-.32-.72-.72-.72h-9.69c.33.41.57.9.67,1.43h9.02Z"/>
      <path class="cls-1" d="M20.31,26.5v.08c0,.48-.11.94-.3,1.36h5.67c.4,0,.72-.32.72-.72s-.32-.72-.72-.72h-5.37Z"/>
      <path class="cls-1" d="M44.29,12.19h-4.3v18.26c0,1.5-1.16,2.73-2.62,2.85-.62,1.07-1.78,1.8-3.1,1.8H12.79c-.17,0-.34-.02-.51-.04-.16.02-.32.04-.49.04h-.87c-1.09,0-2.08-.54-2.69-1.39-.18.03-.37.05-.56.05-.88,0-1.71-.34-2.33-.97l-.62-.62c-.62-.62-.97-1.45-.97-2.33,0-.19.02-.38.05-.56-.86-.61-1.39-1.61-1.39-2.69v-.87c0-1.09.54-2.08,1.39-2.69-.03-.18-.05-.37-.05-.56,0-.88.34-1.71.97-2.33l.61-.61c.62-.62,1.45-.97,2.33-.97.19,0,.38.02.56.05.26-.37.6-.67.98-.91v-5.5H2.77c-1.18,0-2.15.96-2.15,2.15v22.91c0,1.18.96,2.15,2.15,2.15h20.05v1.43h-5.73c-.4,0-.72.32-.72.72s.32.72.72.72h12.89c.4,0,.72-.32.72-.72s-.32-.72-.72-.72h-5.73v-1.43h20.05c1.18,0,2.15-.96,2.15-2.15V14.33c0-1.18-.96-2.15-2.15-2.15ZM45.01,37.24c0,.39-.32.72-.72.72H2.77c-.39,0-.72-.32-.72-.72v-.72h42.95v.72Z"/>
      <path class="cls-1" d="M34.27,3.6H12.79c-1.18,0-2.15.96-2.15,2.15v11.47c.09,0,.19-.02.28-.02h.87c.09,0,.19,0,.28.02V5.74c0-.39.32-.72.72-.72h21.48c.39,0,.72.32.72.72v.86l-2.08,4.51s0,0,0,0c-.02.05-.04.1-.05.16,0,.01,0,.02,0,.04,0,.03,0,.06,0,.1v19.03c0,.79.64,1.43,1.43,1.43h.62c-.12.21-.35.36-.62.36h-16.34l-.55.55c-.45.45-1,.75-1.6.88h18.49c1.06,0,1.94-.78,2.12-1.79h.75c.79,0,1.43-.64,1.43-1.43V11.41s0-.07,0-.1c0-.01,0-.02,0-.04-.01-.05-.03-.11-.05-.16,0,0,0,0,0,0l-2.08-4.51v-.86c0-1.18-.96-2.15-2.15-2.15ZM37.14,30.44h-2.86v-2.21h2.86v2.21ZM36.73,10.69h-2.06l1.03-2.23,1.03,2.23Z"/>
    </g>
  </g>
</svg>