<svg width="692" height="633" viewBox="0 0 692 633" fill="none" xmlns="http://www.w3.org/2000/svg">
<path d="M434.409 330.878C488.629 269.965 488.629 171.205 434.409 110.292C380.188 49.3796 292.28 49.3795 238.059 110.292C183.839 171.205 183.839 269.965 238.059 330.877C292.28 391.79 380.188 391.79 434.409 330.878Z" fill="#06213A"/>
<path d="M691.946 480.249L660.04 480.171L612.868 480.053L516.771 479.81C516.771 479.81 516.792 479.8 516.825 479.781L613.341 419.61L691.946 480.249Z" fill="#EDB188"/>
<path d="M691.948 480.249L660.042 480.171C650.614 459.951 623.03 448.525 615.347 442.894C605.759 435.857 613.343 419.61 613.343 419.61L691.948 480.249Z" fill="#EFBE97"/>
<path d="M612.868 480.055L516.771 479.812C516.771 479.812 516.792 479.802 516.825 479.783C518.076 479.149 541.913 467.244 560.236 471.644C576.454 475.537 604.351 472.922 612.868 480.055Z" fill="#E8A577"/>
<path d="M358.586 480.249L293.275 480.09L196.711 479.851L0 479.352C0 479.352 0.0403584 479.332 0.10824 479.293L197.678 356.122L358.586 480.249Z" fill="#EDB188"/>
<path d="M358.586 480.249L293.275 480.09C273.976 438.7 217.51 415.309 201.782 403.783C182.155 389.38 197.68 356.12 197.68 356.12L358.586 480.249Z" fill="#EFBE97"/>
<path d="M196.711 479.851L0 479.353C0 479.353 0.0403584 479.332 0.10824 479.293C2.67122 477.994 51.4633 453.624 88.9705 462.633C122.174 470.601 179.28 465.249 196.711 479.851Z" fill="#E8A577"/>
<path d="M605.365 480.249L559.925 480.138L492.741 479.971L355.877 479.623C355.877 479.623 355.906 479.608 355.952 479.581L493.412 393.886L605.365 480.249Z" fill="#EFBE97"/>
<path d="M605.363 480.249L559.923 480.138C546.495 451.341 507.208 435.066 496.266 427.047C482.611 417.026 493.412 393.886 493.412 393.886L605.363 480.249Z" fill="#F5CDA9"/>
<path d="M492.737 479.973L355.873 479.625C355.873 479.625 355.902 479.611 355.948 479.584C357.732 478.681 391.68 461.725 417.775 467.992C440.877 473.539 480.608 469.812 492.737 479.973Z" fill="#EDB188"/>
<path d="M589.264 353.542C579.81 353.816 572.395 362.815 572.395 373.44V480.556H607.049V373.001C607.049 362.079 599.043 353.26 589.264 353.542Z" fill="#19661C"/>
<path d="M589.72 353.536C584.288 353.536 579.883 362.25 579.883 373.001V480.557H599.557V373.001C599.557 362.25 595.152 353.536 589.72 353.536Z" fill="#247C22"/>
<path d="M589.721 353.536C587.684 353.536 586.033 362.25 586.033 373.001V480.557H593.408V373.001C593.408 362.25 591.757 353.536 589.721 353.536Z" fill="#247C22"/>
<path d="M582.642 368.059L580.38 370.289L579.921 365.507H579.918L579.459 370.293L577.193 368.059L579.312 371.812H579.314L579.916 372.877V372.869L579.92 372.877L580.527 371.812V371.804L582.642 368.059Z" fill="#06213A"/>
<path d="M602.251 368.059L599.989 370.289L599.531 365.507H599.527L599.068 370.293L596.801 368.059L598.922 371.812H598.923L599.523 372.877V372.869L599.529 372.877L600.136 371.812L600.134 371.804L602.251 368.059Z" fill="#06213A"/>
<path d="M592.445 375.429L590.183 377.659L589.724 372.877H589.72L589.262 377.663L586.996 375.429L589.115 379.18L589.117 379.182L589.719 380.246V380.24L589.722 380.246L590.33 379.18L590.328 379.174L592.445 375.429Z" fill="#06213A"/>
<path d="M592.445 393.781L590.183 396.011L589.724 391.229H589.72L589.262 396.015L586.996 393.781L589.115 397.534L589.117 397.536L589.719 398.6V398.592L589.722 398.6L590.33 397.534L590.328 397.526L592.445 393.781Z" fill="#06213A"/>
<path d="M592.445 412.135L590.183 414.365L589.724 409.583H589.72L589.262 414.369L586.996 412.135L589.115 415.886L589.117 415.888L589.719 416.954V416.946L589.722 416.954L590.33 415.886L590.328 415.88L592.445 412.135Z" fill="#06213A"/>
<path d="M582.642 385.091L580.38 387.322L579.921 382.54H579.918L579.459 387.326L577.193 385.091L579.312 388.845H579.314L579.916 389.91V389.902L579.92 389.91L580.527 388.845V388.836L582.642 385.091Z" fill="#06213A"/>
<path d="M602.251 385.091L599.989 387.322L599.531 382.54H599.527L599.068 387.326L596.801 385.091L598.922 388.845H598.923L599.523 389.91V389.902L599.529 389.91L600.136 388.845L600.134 388.836L602.251 385.091Z" fill="#06213A"/>
<path d="M582.642 402.124L580.38 404.354L579.921 399.573H579.918L579.459 404.359L577.193 402.124L579.312 405.876L579.314 405.878L579.916 406.943V406.935L579.92 406.943L580.527 405.876V405.869L582.642 402.124Z" fill="#06213A"/>
<path d="M602.251 402.124L599.989 404.354L599.531 399.573H599.527L599.068 404.359L596.801 402.124L598.922 405.876L598.923 405.878L599.523 406.943V406.935L599.529 406.943L600.136 405.876L600.134 405.869L602.251 402.124Z" fill="#06213A"/>
<path d="M557.934 382.785V375.911C557.934 371.509 555.001 367.564 551.088 367.333C546.914 367.088 543.463 370.816 543.463 375.45V388.624V391.425C543.463 398.857 548.826 404.882 555.441 404.882H557.934H573.874V388.624H563.134C560.263 388.624 557.934 386.011 557.934 382.785Z" fill="#19661C"/>
<path d="M555.441 399.218C551.608 399.218 548.504 395.729 548.504 391.425V375.45C548.504 374.091 549.489 372.985 550.7 372.985C551.947 373.055 552.894 374.392 552.894 375.909V388.307C552.894 391.609 555.277 394.286 558.216 394.286H572.394V399.216L555.441 399.218Z" fill="#247C22"/>
<path d="M558.255 396.826L555.993 399.056L555.535 394.274H555.529L555.07 399.06L552.805 396.826L554.926 400.577V400.579L555.527 401.644V401.636L555.533 401.644L556.138 400.577V400.571L558.255 396.826Z" fill="#06213A"/>
<path d="M551.23 385.092L548.968 387.322L548.509 382.54H548.506L548.047 387.326L545.781 385.092L547.9 388.845H547.902L548.504 389.91V389.902L548.507 389.91L549.115 388.845L549.113 388.837L551.23 385.092Z" fill="#06213A"/>
<path d="M555.529 374.646L553.269 376.876L552.81 372.094H552.804L552.346 376.88L550.08 374.646L552.201 378.399L552.803 379.464V379.456L552.808 379.464L553.414 378.399V378.391L555.529 374.646Z" fill="#06213A"/>
<path d="M568.793 396.826L566.531 399.056L566.072 394.274H566.068L565.608 399.06L563.344 396.826L565.463 400.577L565.465 400.579L566.065 401.644V401.636L566.07 401.644L566.677 400.577L566.675 400.571L568.793 396.826Z" fill="#06213A"/>
<path d="M622.99 416.539V409.665C622.99 405.263 625.924 401.318 629.837 401.089C634.011 400.844 637.462 404.573 637.462 409.206V422.38V425.181C637.462 432.614 632.099 438.638 625.483 438.638H622.99H607.051V422.38H617.791C620.662 422.378 622.99 419.765 622.99 416.539Z" fill="#19661C"/>
<path d="M625.483 432.972C629.314 432.972 632.42 429.483 632.42 425.179V409.204C632.42 407.846 631.435 406.739 630.224 406.739C628.976 406.809 628.03 408.147 628.03 409.663V422.061C628.03 425.363 625.647 428.04 622.708 428.04H607.051V432.972H625.483Z" fill="#247C22"/>
<path d="M622.67 430.58L624.93 432.81L625.389 428.028H625.394L625.853 432.814L628.119 430.58L625.998 434.333L625.396 435.398V435.39L625.391 435.398L624.785 434.333V434.325L622.67 430.58Z" fill="#06213A"/>
<path d="M629.697 418.846L631.959 421.076L632.418 416.294H632.422L632.88 421.08L635.148 418.846L633.027 422.599H633.025L632.425 423.664V423.656L632.42 423.664L631.813 422.599L631.814 422.591L629.697 418.846Z" fill="#06213A"/>
<path d="M625.393 408.4L627.655 410.63L628.113 405.848H628.117L628.576 410.634L630.841 408.4L628.721 412.153L628.119 413.219V413.21L628.115 413.219L627.508 412.153V412.147L625.393 408.4Z" fill="#06213A"/>
<path d="M612.135 430.58L614.397 432.81L614.856 428.028H614.861L615.32 432.814L617.585 430.58L615.465 434.333L614.863 435.398V435.39L614.857 435.398L614.252 434.333V434.325L612.135 430.58Z" fill="#06213A"/>
<path d="M582.642 421.533L580.38 423.763L579.921 418.981H579.918L579.459 423.767L577.193 421.533L579.312 425.286H579.314L579.916 426.352V426.344L579.92 426.352L580.527 425.286V425.278L582.642 421.533Z" fill="#06213A"/>
<path d="M602.251 421.533L599.989 423.763L599.531 418.981H599.527L599.068 423.767L596.801 421.533L598.922 425.286H598.923L599.523 426.352V426.344L599.529 426.352L600.136 425.286L600.134 425.278L602.251 421.533Z" fill="#06213A"/>
<path d="M592.445 428.903L590.183 431.134L589.724 426.352H589.72L589.262 431.138L586.996 428.903L589.115 432.655L589.117 432.657L589.719 433.722V433.714L589.722 433.722L590.33 432.655L590.328 432.648L592.445 428.903Z" fill="#06213A"/>
<path d="M592.445 447.255L590.183 449.488L589.724 444.704H589.72L589.262 449.49L586.996 447.255L589.115 451.009L589.117 451.011L589.719 452.074V452.066L589.722 452.074L590.33 451.009L590.328 451.003L592.445 447.255Z" fill="#06213A"/>
<path d="M592.445 465.609L590.183 467.84L589.724 463.058H589.72L589.262 467.844L586.996 465.609L589.115 469.361L589.117 469.363L589.719 470.428V470.42L589.722 470.428L590.33 469.361L590.328 469.354L592.445 465.609Z" fill="#06213A"/>
<path d="M582.642 438.566L580.38 440.796L579.921 436.014H579.918L579.459 440.8L577.193 438.566L579.312 442.319H579.314L579.916 443.385V443.376L579.92 443.385L580.527 442.319V442.311L582.642 438.566Z" fill="#06213A"/>
<path d="M602.251 438.566L599.989 440.796L599.531 436.014H599.527L599.068 440.8L596.801 438.566L598.922 442.319H598.923L599.523 443.385V443.376L599.529 443.385L600.136 442.319L600.134 442.311L602.251 438.566Z" fill="#06213A"/>
<path d="M582.642 455.599L580.38 457.829L579.921 453.047H579.918L579.459 457.833L577.193 455.599L579.312 459.352H579.314L579.916 460.418V460.41L579.92 460.418L580.527 459.352V459.344L582.642 455.599Z" fill="#06213A"/>
<path d="M602.251 455.599L599.989 457.829L599.531 453.047H599.527L599.068 457.833L596.801 455.599L598.922 459.352H598.923L599.523 460.418V460.41L599.529 460.418L600.136 459.352L600.134 459.344L602.251 455.599Z" fill="#06213A"/>
<path d="M591.259 346.924C591.259 346.924 591.599 340.782 589.724 336.745C587.849 340.782 588.188 346.924 588.188 346.924H591.259Z" fill="#06213A"/>
<path d="M591.807 344.948C591.347 345.797 590.861 346.232 590.373 346.232H589.722H589.07C588.58 346.232 588.096 345.797 587.636 344.948L585.289 340.615L586.74 348.019C587.531 352.056 588.604 354.326 589.723 354.326C590.842 354.326 591.916 352.056 592.706 348.019L594.156 340.615L591.807 344.948Z" fill="#06213A"/>
<path d="M592.921 346.341C592.216 347.064 591.471 347.433 590.721 347.433H589.721H588.721C587.971 347.433 587.228 347.064 586.522 346.341L582.924 342.654L585.147 348.956C586.36 352.394 588.006 354.326 589.719 354.326C591.435 354.326 593.078 352.394 594.291 348.956L596.515 342.654L592.921 346.341Z" fill="#06213A"/>
<path d="M594.41 347.682C593.377 348.284 592.285 348.591 591.186 348.591H589.722H588.258C587.159 348.591 586.067 348.284 585.035 347.682L579.764 344.614L583.02 349.857C584.798 352.718 587.207 354.325 589.72 354.325C592.234 354.325 594.644 352.718 596.42 349.857L599.679 344.614L594.41 347.682Z" fill="#06213A"/>
<path d="M551.059 364.252C551.059 364.252 551.273 360.346 550.083 357.778C548.89 360.344 549.105 364.252 549.105 364.252H551.059Z" fill="#06213A"/>
<path d="M551.412 362.995C551.118 363.535 550.81 363.811 550.5 363.811H550.086H549.671C549.359 363.811 549.051 363.535 548.759 362.995L547.268 360.239L548.19 364.947C548.693 367.515 549.376 368.957 550.087 368.957C550.799 368.957 551.482 367.515 551.984 364.947L552.907 360.239L551.412 362.995Z" fill="#06213A"/>
<path d="M552.119 363.881C551.669 364.341 551.198 364.575 550.721 364.575H550.086H549.451C548.974 364.575 548.501 364.341 548.053 363.881L545.766 361.535L547.18 365.542C547.951 367.729 548.996 368.957 550.088 368.957C551.178 368.957 552.225 367.729 552.996 365.542L554.41 361.535L552.119 363.881Z" fill="#06213A"/>
<path d="M553.065 364.734C552.408 365.117 551.714 365.313 551.015 365.313H550.083H549.153C548.454 365.313 547.761 365.117 547.104 364.734L543.752 362.782L545.823 366.117C546.953 367.937 548.485 368.957 550.083 368.957C551.681 368.957 553.213 367.935 554.343 366.117L556.415 362.782L553.065 364.734Z" fill="#06213A"/>
<path d="M631.424 396.314C631.424 396.314 631.703 391.254 630.159 387.929C628.614 391.254 628.893 396.314 628.893 396.314H631.424Z" fill="#06213A"/>
<path d="M631.878 394.685C631.498 395.384 631.098 395.743 630.696 395.743H630.159H629.621C629.218 395.743 628.818 395.384 628.44 394.685L626.508 391.117L627.702 397.214C628.353 400.541 629.238 402.408 630.159 402.408C631.08 402.408 631.964 400.539 632.615 397.214L633.81 391.117L631.878 394.685Z" fill="#06213A"/>
<path d="M632.792 395.834C632.211 396.429 631.598 396.734 630.982 396.734H630.158H629.334C628.716 396.734 628.103 396.429 627.522 395.834L624.559 392.796L626.39 397.985C627.388 400.817 628.743 402.409 630.156 402.409C631.569 402.409 632.923 400.817 633.923 397.985L635.754 392.796L632.792 395.834Z" fill="#06213A"/>
<path d="M634.018 396.938C633.167 397.433 632.269 397.686 631.363 397.686H630.158H628.952C628.048 397.686 627.149 397.433 626.298 396.938L621.957 394.411L624.639 398.731C626.103 401.087 628.088 402.41 630.158 402.41C632.227 402.41 634.212 401.087 635.676 398.731L638.359 394.411L634.018 396.938Z" fill="#06213A"/>
<path d="M396.634 284.875L342.874 267.646L336.236 307.693L355.311 319.767L361.169 352.105L361.332 403.622L368.051 444.767L343.344 440.025L342.496 449.976L338.33 488.291L343.344 495.377L393.783 468.231L412.225 400.534L415.962 355.504L396.634 284.875Z" fill="#8E44AD"/>
<path d="M312.143 352.105L317.936 403.622L322.897 441.762L339.794 450.769L346.034 490.231L299.559 461.175L276.202 400.534L275.977 355.504L292.903 288.189L338.209 271.069L342.401 305.891L331.483 320.032L312.143 352.105Z" fill="#8E44AD"/>
<path d="M231.295 405.063L259.24 401.924L265.912 443.993L237.621 438.517L243.178 488.679L199.22 481.229L195.796 440.493L122.85 437.798L123.64 411.144L149.977 366.952L170.235 317.195L194.916 270.534L196.055 271.847L241.482 269.887L247.348 336.889L231.295 405.063ZM149.622 402.539L196.376 401.943L188.772 335.595L192.936 333.059L195.228 344.14L149.622 402.539Z" fill="#8E44AD"/>
<path d="M261.592 398.375L256.33 432.603L190.872 439.389L120.232 445.693L118.465 409.19L142.592 361.655L164.646 313.013L197.273 268.758L193.248 334.471L156.627 402.371L209.549 409.74L261.592 398.375Z" fill="#8E44AD"/>
<path d="M538.861 405.063L566.806 401.924L573.479 443.993L545.185 438.517L550.742 488.679L506.784 481.229L503.361 440.493L430.414 437.798L431.205 411.144L457.541 366.952L477.799 317.195L502.48 270.534L503.62 271.847L549.047 269.887L554.912 336.889L538.861 405.063ZM457.189 402.539L503.942 401.943L496.338 335.595L500.503 333.059L502.794 344.14L457.189 402.539Z" fill="#8E44AD"/>
<path d="M569.158 398.375L563.895 432.603L498.437 439.389L427.798 445.693L426.031 409.19L450.157 361.655L472.211 313.013L504.838 268.758L500.813 334.471L464.193 402.371L517.115 409.74L569.158 398.375Z" fill="#8E44AD"/>
<path d="M97.7626 273.153C86.0247 273.494 76.8203 284.665 76.8203 297.856V504.327H119.842V297.311C119.842 283.754 109.902 272.803 97.7626 273.153Z" fill="#19661D"/>
<path d="M98.3323 273.145C91.5863 273.145 86.1191 283.964 86.1191 297.311V504.327H110.545V297.311C110.545 283.966 105.076 273.145 98.3323 273.145Z" fill="#247C22"/>
<path d="M98.3333 273.145C95.8051 273.145 93.7559 283.964 93.7559 297.311V504.327H102.913V297.311C102.911 283.966 100.861 273.145 98.3333 273.145Z" fill="#247C22"/>
<path d="M58.8689 309.457V300.922C58.8689 295.458 55.2271 290.559 50.369 290.275C45.188 289.97 40.9023 294.599 40.9023 300.351V316.708V320.185C40.9023 329.413 47.5602 336.892 55.7739 336.892H58.8689H78.6572V316.71H65.3231C61.7584 316.706 58.8689 313.46 58.8689 309.457Z" fill="#19661C"/>
<path d="M55.7718 329.86C51.0146 329.86 47.1582 325.527 47.1582 320.183V300.351C47.1582 298.665 48.3801 297.291 49.8845 297.291C51.4329 297.377 52.6089 299.038 52.6089 300.922V316.312C52.6089 320.412 55.5682 323.736 59.2172 323.736H76.8187V329.858L55.7718 329.86Z" fill="#247C22"/>
<path d="M139.63 422.308V413.773C139.63 408.309 143.274 403.41 148.13 403.126C153.311 402.821 157.597 407.45 157.597 413.202V429.559V433.036C157.597 442.263 150.939 449.743 142.725 449.743H139.63H119.842V429.559H133.176C136.741 429.559 139.63 426.313 139.63 422.308Z" fill="#19661C"/>
<path d="M142.725 442.711C147.482 442.711 151.339 438.378 151.339 433.034V413.202C151.339 411.516 150.117 410.141 148.612 410.141C147.064 410.228 145.888 411.889 145.888 413.773V429.163C145.888 433.263 142.929 436.587 139.28 436.587H119.842V442.709L142.725 442.711Z" fill="#247C22"/>
<path d="M101.713 479.975L98.9046 482.743L98.3358 476.807H98.3303L97.7598 482.749L94.9473 479.975L97.58 484.633V484.635L98.3266 485.956V485.946L98.3322 485.956L99.0862 484.633V484.625L101.713 479.975Z" fill="#F9A42D"/>
<path d="M89.5416 291.175L86.7346 293.943L86.1641 288.008H86.1604L85.5898 293.95L82.7773 291.175L85.41 295.834V295.836L86.1567 297.157V297.146L86.1622 297.157L86.9163 295.834L86.9144 295.825L89.5416 291.175Z" fill="#06213A"/>
<path d="M113.885 291.175L111.076 293.943L110.508 288.008H110.502L109.933 293.95L107.119 291.175L109.752 295.834L109.754 295.836L110.5 297.157V297.146L110.506 297.157L111.258 295.834V295.825L113.885 291.175Z" fill="#06213A"/>
<path d="M101.715 300.325L98.9065 303.093L98.3378 297.157H98.3323L97.7617 303.099L94.9492 300.325L97.5819 304.983V304.985L98.3286 306.306V306.296L98.3341 306.306L99.0881 304.983V304.974L101.715 300.325Z" fill="#06213A"/>
<path d="M101.715 323.11L98.9065 325.878L98.3378 319.942H98.3323L97.7617 325.884L94.9492 323.11L97.5819 327.768V327.77L98.3286 329.091V329.081L98.3341 329.091L99.0881 327.768V327.76L101.715 323.11Z" fill="#06213A"/>
<path d="M101.715 345.895L98.9065 348.663L98.3378 342.727H98.3323L97.7617 348.669L94.9492 345.895L97.5819 350.553V350.555L98.3286 351.876V351.866L98.3341 351.876L99.0881 350.553V350.545L101.715 345.895Z" fill="#06213A"/>
<path d="M89.5416 312.322L86.7346 315.09L86.1641 309.152H86.1604L85.5898 315.094L82.7773 312.322L85.41 316.98V316.982L86.1567 318.304V318.293L86.1622 318.304L86.9163 316.98L86.9144 316.97L89.5416 312.322Z" fill="#06213A"/>
<path d="M113.885 312.322L111.076 315.09L110.508 309.152H110.502L109.933 315.094L107.119 312.322L109.752 316.98L109.754 316.982L110.5 318.304V318.293L110.506 318.304L111.258 316.98V316.97L113.885 312.322Z" fill="#06213A"/>
<path d="M89.5416 333.467L86.7346 336.235L86.1641 330.299H86.1604L85.5898 336.241L82.7773 333.467L85.41 338.125V338.127L86.1567 339.448V339.438L86.1622 339.448L86.9163 338.125L86.9144 338.117L89.5416 333.467Z" fill="#06213A"/>
<path d="M113.885 333.467L111.076 336.235L110.508 330.299H110.502L109.933 336.241L107.119 333.467L109.752 338.125L109.754 338.127L110.5 339.448V339.438L110.506 339.448L111.258 338.125V338.117L113.885 333.467Z" fill="#06213A"/>
<path d="M59.27 326.888L56.4612 329.658L55.8925 323.72H55.887L55.3182 329.662L52.5039 326.888L55.1366 331.546L55.1384 331.548L55.8851 332.869V332.861L55.8906 332.869L56.6428 331.546V331.537L59.27 326.888Z" fill="#06213A"/>
<path d="M50.5474 312.322L47.7386 315.09L47.1698 309.152H47.1643L46.5938 315.094L43.7812 312.322L46.414 316.98V316.982L47.1606 318.304V318.293L47.1661 318.304L47.9202 316.98L47.9184 316.97L50.5474 312.322Z" fill="#06213A"/>
<path d="M55.8834 299.354L53.0764 302.122L52.5059 296.186H52.5022L51.9316 302.126L49.1191 299.354L51.75 304.012L51.7518 304.014L52.4985 305.335V305.325L52.504 305.335L53.2581 304.012L53.2562 304.004L55.8834 299.354Z" fill="#06213A"/>
<path d="M72.3482 326.888L69.5393 329.658L68.9706 323.72H68.9651L68.3964 329.662L65.582 326.888L68.2147 331.546V331.548L68.9614 332.869V332.861L68.9669 332.869L69.721 331.546V331.537L72.3482 326.888Z" fill="#06213A"/>
<path d="M139.23 439.739L142.039 442.509L142.608 436.571H142.614L143.182 442.513L145.997 439.739L143.364 444.399L142.617 445.72V445.712L142.612 445.72L141.858 444.399V444.388L139.23 439.739Z" fill="#06213A"/>
<path d="M147.955 425.173L150.762 427.941L151.331 422.005H151.336L151.907 427.945L154.719 425.173L152.087 429.831V429.833L151.34 431.155V431.144L151.334 431.155L150.58 429.831L150.582 429.823L147.955 425.173Z" fill="#06213A"/>
<path d="M142.613 412.205L145.422 414.973L145.991 409.037H145.996L146.565 414.979L149.378 412.205L146.747 416.863L146.745 416.865L145.998 418.186V418.176L145.993 418.186L145.24 416.863V416.855L142.613 412.205Z" fill="#06213A"/>
<path d="M126.152 439.739L128.961 442.509L129.53 436.571H129.535L130.106 442.513L132.918 439.739L130.286 444.399L129.539 445.72V445.712L129.534 445.72L128.78 444.399L128.781 444.388L126.152 439.739Z" fill="#06213A"/>
<path d="M89.5416 357.563L86.7346 360.333L86.1641 354.395H86.1604L85.5898 360.337L82.7773 357.563L85.41 362.223V362.225L86.1567 363.546V363.536L86.1622 363.546L86.9163 362.223L86.9144 362.215L89.5416 357.563Z" fill="#06213A"/>
<path d="M113.885 357.563L111.076 360.333L110.508 354.395H110.502L109.933 360.337L107.119 357.563L109.752 362.223L109.754 362.225L110.5 363.546V363.536L110.506 363.546L111.258 362.223V362.215L113.885 357.563Z" fill="#06213A"/>
<path d="M101.715 366.714L98.9065 369.482L98.3378 363.546H98.3323L97.7617 369.486L94.9492 366.714L97.5819 371.372V371.374L98.3286 372.695V372.685L98.3341 372.695L99.0881 371.372V371.364L101.715 366.714Z" fill="#06213A"/>
<path d="M101.715 389.497L98.9065 392.267L98.3378 386.329H98.3323L97.7617 392.271L94.9492 389.497L97.5819 394.157L98.3286 395.481V395.47L98.3341 395.481L99.0881 394.157V394.149L101.715 389.497Z" fill="#06213A"/>
<path d="M101.715 412.283L98.9065 415.053L98.3378 409.115H98.3323L97.7617 415.057L94.9492 412.283L97.5819 416.941V416.943L98.3286 418.266V418.256L98.3341 418.266L99.0881 416.941V416.932L101.715 412.283Z" fill="#06213A"/>
<path d="M89.5416 378.71L86.7346 381.478L86.1641 375.542H86.1604L85.5898 381.484L82.7773 378.71L85.41 383.368V383.37L86.1567 384.691V384.681L86.1622 384.691L86.9163 383.368L86.9144 383.359L89.5416 378.71Z" fill="#06213A"/>
<path d="M113.885 378.71L111.076 381.478L110.508 375.542H110.502L109.933 381.484L107.119 378.71L109.752 383.368L109.754 383.37L110.5 384.691V384.681L110.506 384.691L111.258 383.368V383.359L113.885 378.71Z" fill="#06213A"/>
<path d="M89.5416 399.856L86.7346 402.624L86.1641 396.688H86.1604L85.5898 402.629L82.7773 399.856L85.41 404.514V404.516L86.1567 405.838V405.827L86.1622 405.838L86.9163 404.514L86.9144 404.506L89.5416 399.856Z" fill="#06213A"/>
<path d="M113.885 399.856L111.076 402.624L110.508 396.688H110.502L109.933 402.629L107.119 399.856L109.752 404.514L109.754 404.516L110.5 405.838V405.827L110.506 405.838L111.258 404.514V404.506L113.885 399.856Z" fill="#06213A"/>
<path d="M89.5416 425.255L86.7346 428.023L86.1641 422.087H86.1604L85.5898 428.029L82.7773 425.255L85.41 429.913V429.915L86.1567 431.236V431.226L86.1622 431.236L86.9163 429.913L86.9144 429.905L89.5416 425.255Z" fill="#06213A"/>
<path d="M113.885 425.255L111.076 428.023L110.508 422.087H110.502L109.933 428.029L107.119 425.255L109.752 429.913L109.754 429.915L110.5 431.236V431.226L110.506 431.236L111.258 429.913V429.905L113.885 425.255Z" fill="#06213A"/>
<path d="M101.715 434.404L98.9065 437.172L98.3378 431.236H98.3323L97.7617 437.178L94.9492 434.404L97.5819 439.062V439.064L98.3286 440.385V440.375L98.3341 440.385L99.0881 439.062V439.054L101.715 434.404Z" fill="#06213A"/>
<path d="M101.715 457.189L98.9065 459.957L98.3378 454.021H98.3323L97.7617 459.964L94.9492 457.189L97.5819 461.847V461.849L98.3286 463.171V463.16L98.3341 463.171L99.0881 461.847V461.839L101.715 457.189Z" fill="#06213A"/>
<path d="M89.5416 446.4L86.7346 449.17L86.1641 443.232H86.1604L85.5898 449.174L82.7773 446.4L85.41 451.06V451.062L86.1567 452.383V452.373L86.1622 452.383L86.9163 451.06L86.9144 451.052L89.5416 446.4Z" fill="#06213A"/>
<path d="M113.885 446.4L111.076 449.17L110.508 443.232H110.502L109.933 449.174L107.119 446.4L109.752 451.06L109.754 451.062L110.5 452.383V452.373L110.506 452.383L111.258 451.06V451.052L113.885 446.4Z" fill="#06213A"/>
<path d="M89.5416 467.547L86.7346 470.315L86.1641 464.379H86.1604L85.5898 470.321L82.7773 467.547L85.41 472.205V472.207L86.1567 473.528V473.517L86.1622 473.528L86.9163 472.205L86.9144 472.196L89.5416 467.547Z" fill="#06213A"/>
<path d="M113.885 467.547L111.076 470.315L110.508 464.379H110.502L109.933 470.321L107.119 467.547L109.752 472.205L109.754 472.207L110.5 473.528V473.517L110.506 473.528L111.258 472.205V472.196L113.885 467.547Z" fill="#06213A"/>
<path d="M100.238 264.938C100.238 264.938 100.658 257.312 98.3301 252.299C96.002 257.312 96.4221 264.938 96.4221 264.938H100.238Z" fill="#06213A"/>
<path d="M100.921 262.483C100.35 263.538 99.7464 264.076 99.1391 264.076H98.3301H97.521C96.9137 264.076 96.3101 263.536 95.7396 262.483L92.8262 257.106L94.626 266.296C95.6075 271.309 96.9413 274.126 98.3301 274.126C99.7189 274.126 101.051 271.309 102.034 266.296L103.836 257.106L100.921 262.483Z" fill="#06213A"/>
<path d="M102.304 264.215C101.429 265.113 100.504 265.571 99.5723 265.571H98.3321H97.0919C96.1599 265.571 95.2371 265.111 94.362 264.215L89.8965 259.635L92.6558 267.459C94.162 271.727 96.2039 274.124 98.3321 274.124C100.46 274.124 102.504 271.725 104.008 267.459L106.768 259.635L102.304 264.215Z" fill="#06213A"/>
<path d="M104.15 265.878C102.868 266.626 101.514 267.007 100.149 267.007H98.3305H96.5124C95.1474 267.007 93.7935 266.626 92.5111 265.878L85.9688 262.069L90.0123 268.58C92.2193 272.131 95.2098 274.126 98.3305 274.126C101.451 274.126 104.444 272.131 106.649 268.58L110.692 262.069L104.15 265.878Z" fill="#06213A"/>
<path d="M50.331 286.45C50.331 286.45 50.5989 281.6 49.1183 278.413C47.6378 281.6 47.9056 286.45 47.9056 286.45H50.331Z" fill="#06213A"/>
<path d="M50.767 284.889C50.4037 285.559 50.0203 285.903 49.635 285.903H49.1195H48.604C48.2169 285.903 47.8334 285.561 47.4702 284.889L45.6172 281.47L46.762 287.313C47.3858 290.501 48.2334 292.292 49.1177 292.292C50.002 292.292 50.8477 290.501 51.4733 287.313L52.6181 281.47L50.767 284.889Z" fill="#06213A"/>
<path d="M51.6427 285.99C51.085 286.561 50.4979 286.853 49.9053 286.853H49.1164H48.3275C47.7349 286.853 47.1479 286.561 46.592 285.99L43.752 283.077L45.5077 288.053C46.4654 290.767 47.7643 292.293 49.1183 292.293C50.4722 292.293 51.7711 290.767 52.7288 288.053L54.4846 283.077L51.6427 285.99Z" fill="#06213A"/>
<path d="M52.8197 287.047C52.0032 287.521 51.1428 287.764 50.275 287.764H49.1192H47.9634C47.0956 287.764 46.2352 287.521 45.4188 287.047L41.2578 284.625L43.83 288.764C45.2334 291.023 47.136 292.29 49.1192 292.29C51.1024 292.29 53.005 291.021 54.4085 288.764L56.9806 284.625L52.8197 287.047Z" fill="#06213A"/>
<path d="M150.103 397.198C150.103 397.198 150.45 390.915 148.532 386.789C146.615 390.917 146.962 397.198 146.962 397.198H150.103Z" fill="#06213A"/>
<path d="M150.665 395.177C150.195 396.045 149.698 396.49 149.197 396.49H148.529H147.864C147.363 396.49 146.867 396.047 146.396 395.177L143.996 390.748L145.478 398.316C146.288 402.445 147.385 404.765 148.529 404.765C149.674 404.765 150.771 402.447 151.58 398.316L153.063 390.748L150.665 395.177Z" fill="#06213A"/>
<path d="M151.805 396.602C151.084 397.342 150.322 397.719 149.555 397.719H148.534H147.512C146.745 397.719 145.983 397.339 145.262 396.602L141.584 392.83L143.857 399.275C145.097 402.791 146.78 404.766 148.532 404.766C150.286 404.766 151.968 402.791 153.208 399.275L155.481 392.83L151.805 396.602Z" fill="#06213A"/>
<path d="M153.324 397.973C152.267 398.589 151.152 398.902 150.029 398.902H148.532H147.035C145.91 398.902 144.797 398.587 143.74 397.973L138.352 394.836L141.683 400.199C143.5 403.123 145.965 404.766 148.534 404.766C151.104 404.766 153.568 403.123 155.384 400.199L158.714 394.836L153.324 397.973Z" fill="#06213A"/>
<path d="M668.355 476.809C667.111 476.809 646.04 513.012 643.894 516.466C633.108 533.827 611.599 536.543 595.089 546.752C582.509 554.53 572.647 566.973 564.837 580.508C554.525 598.382 546.108 619.857 528.842 628.659C514.996 635.719 498.607 632.584 484.598 625.947C461.238 614.881 444.199 601.886 418.481 598.168C393.866 594.608 368.345 598.403 345.544 609.479C322.732 620.561 299.197 639.002 275.395 631.04C245.244 620.941 232.973 573.243 201.896 567.853C179.506 563.958 159.305 584.61 136.713 586.463C114.727 588.279 94.6431 571.899 80.621 552.799C66.5971 533.697 56.38 511.192 41.1947 493.244C35.689 486.758 29.8145 481.424 23.5859 476.809C23.5823 476.809 665.517 476.809 668.355 476.809Z" fill="#2C3E50"/>
<path d="M668.362 476.807C667.118 476.807 646.04 513.008 643.892 516.475C633.115 533.825 611.608 536.55 595.089 546.76C582.516 554.539 572.644 566.973 564.847 580.513C554.531 598.38 546.117 619.852 528.848 628.666C515 635.719 498.62 632.58 484.604 625.941C461.238 614.885 444.198 601.882 418.483 598.174C393.874 594.604 368.345 598.399 345.548 609.487C322.734 620.559 299.201 639.014 275.406 631.046C245.256 620.939 232.973 573.253 201.901 567.853C179.519 563.956 159.316 584.618 136.717 586.463C114.733 588.275 94.6525 571.908 80.6212 552.797C66.6046 533.705 56.3802 511.198 41.1986 493.244C35.6874 486.76 29.8221 481.43 23.5898 476.809C23.5898 476.809 40.9069 476.809 69.8593 476.809C73.2827 482.345 76.8144 487.795 80.6212 492.987C94.6525 512.078 114.733 528.462 136.717 526.652C159.314 524.789 179.517 504.145 201.901 508.026C232.973 513.424 245.256 561.128 275.406 571.219C299.201 579.187 322.736 560.751 345.548 549.66C368.345 538.588 393.876 534.794 418.483 538.347C444.198 542.071 461.238 555.058 484.604 566.13C498.62 572.769 515 575.892 528.848 568.839C546.119 560.042 554.531 538.57 564.847 520.686C572.646 507.146 582.516 494.712 595.089 486.933C601.736 482.83 609.166 479.948 616.413 476.809L668.362 476.807Z" fill="#4A4D50"/>
<path d="M355.615 149.674H487.641C487.138 135.364 476.661 123.951 463.805 123.951H463.8C458.52 110.556 446.598 101.205 432.721 101.205C416.043 101.205 402.182 114.71 399.301 132.509C398.702 132.435 398.092 132.387 397.472 132.387C392.095 132.387 387.323 135.312 384.346 139.816C383.325 139.533 382.26 139.379 381.162 139.379C377.271 139.379 373.782 141.262 371.356 144.257C369.736 143.307 367.891 142.765 365.939 142.765C361.479 142.765 357.598 145.558 355.615 149.674Z" fill="#8E44AD"/>
<path d="M516.33 151.758H339.187C338.534 151.758 338.004 151.162 338.004 150.428C338.004 149.695 338.534 149.099 339.187 149.099H516.33C516.983 149.099 517.514 149.695 517.514 150.428C517.515 151.162 516.985 151.758 516.33 151.758Z" fill="#8E44AD"/>
<path d="M385.684 159.243H320.732C320.079 159.243 319.549 158.648 319.549 157.914C319.549 157.18 320.079 156.584 320.732 156.584H385.684C386.337 156.584 386.867 157.18 386.867 157.914C386.867 158.65 386.339 159.243 385.684 159.243Z" fill="#8E44AD"/>
<path d="M461.68 159.243H426.01C425.356 159.243 424.826 158.648 424.826 157.914C424.826 157.18 425.356 156.584 426.01 156.584H461.68C462.333 156.584 462.864 157.18 462.864 157.914C462.864 158.65 462.333 159.243 461.68 159.243Z" fill="#8E44AD"/>
<path d="M291.847 225.693H180.611C181.035 213.635 189.862 204.02 200.693 204.02H200.697C205.146 192.736 215.19 184.856 226.881 184.856C240.934 184.856 252.611 196.234 255.039 211.23C255.543 211.166 256.059 211.129 256.58 211.129C261.11 211.129 265.131 213.594 267.641 217.389C268.499 217.152 269.398 217.02 270.323 217.02C273.602 217.02 276.542 218.607 278.584 221.129C279.949 220.33 281.503 219.872 283.149 219.872C286.908 219.87 290.177 222.224 291.847 225.693Z" fill="#8E44AD"/>
<path d="M156.441 227.449H305.689C306.239 227.449 306.687 226.948 306.687 226.327C306.687 225.709 306.241 225.206 305.689 225.206H156.441C155.891 225.206 155.443 225.707 155.443 226.327C155.443 226.948 155.891 227.449 156.441 227.449Z" fill="#8E44AD"/>
<path d="M266.512 233.756H321.235C321.786 233.756 322.233 233.255 322.233 232.634C322.233 232.016 321.787 231.513 321.235 231.513H266.512C265.961 231.513 265.514 232.014 265.514 232.634C265.516 233.255 265.961 233.756 266.512 233.756Z" fill="#8E44AD"/>
<path d="M202.482 233.756H232.536C233.086 233.756 233.534 233.255 233.534 232.634C233.534 232.016 233.088 231.513 232.536 231.513H202.482C201.932 231.513 201.484 232.014 201.484 232.634C201.486 233.255 201.932 233.756 202.482 233.756Z" fill="#8E44AD"/>
</svg>
